#N canvas 72 96 1848 984 10;
#X obj 55 11 analogInput0~;
#X obj 118 460 *~;
#N canvas 72 96 450 300 partials 0;
#X obj 108 6 inlet;
#X obj 51 107 osc~;
#X obj 91 106 osc~;
#X obj 132 104 osc~;
#X obj 175 104 osc~;
#X obj 219 103 osc~;
#X obj 27 181 *~ 0.0787;
#X obj 99 178 *~ 0.1849;
#X obj 174 179 *~ 1;
#X obj 216 179 *~ 0.0136;
#X obj 291 181 *~ 0.0275;
#X obj 146 271 outlet~;
#X obj 11 59 * 366.1;
#X obj 80 57 * 967.5;
#X obj 139 63 * 1794.2;
#X obj 198 54 2831;
#X obj 229 62 * 4015.1;
#X obj 42 219 /~ 2;
#X obj 110 219 /~ 2;
#X obj 165 221 /~ 2;
#X obj 226 217 /~ 2;
#X obj 289 218 /~ 2;
#X obj 68 31 / 200;
#X connect 0 0 22 0;
#X connect 1 0 6 0;
#X connect 2 0 7 0;
#X connect 3 0 8 0;
#X connect 4 0 9 0;
#X connect 5 0 10 0;
#X connect 6 0 17 0;
#X connect 7 0 18 0;
#X connect 8 0 19 0;
#X connect 9 0 20 0;
#X connect 10 0 21 0;
#X connect 12 0 1 0;
#X connect 13 0 2 0;
#X connect 14 0 3 0;
#X connect 15 0 4 0;
#X connect 16 0 5 0;
#X connect 17 0 11 0;
#X connect 18 0 11 0;
#X connect 19 0 11 0;
#X connect 20 0 11 0;
#X connect 21 0 11 0;
#X connect 22 0 12 0;
#X connect 22 0 13 0;
#X connect 22 0 14 0;
#X connect 22 0 15 0;
#X connect 22 0 16 0;
#X restore 162 386 pd partials;
#X obj 680 876 output~;
#X obj 28 230 scope1~, f 8;
#X obj 75 510 scope2~;
#X obj 816 16 loadbang;
#X msg 816 48 \; speed-in set 1;
#X obj 395 339 mtof;
#X msg 379 264 69;
#X msg 427 265 74;
#X msg 483 262 77;
#X msg 535 266 79;
#X msg 586 265 81;
#X msg 622 264 86;
#X msg 675 262 89;
#X msg 721 257 93;
#X obj 359 215 sel 0 1 2 3 4 5 6;
#X obj 339 52 metro 8;
#X obj 333 11 loadbang, f 11;
#N canvas 564 201 450 300 counter 0;
#X obj 311 56 inlet;
#X obj 163 266 outlet;
#X obj 173 137 f;
#X obj 232 137 + 1;
#X obj 172 208 mod 4;
#X obj 162 40 inlet;
#X obj 208 55 loadbang;
#X msg 202 89 1;
#X connect 0 0 4 1;
#X connect 2 0 3 0;
#X connect 2 0 4 0;
#X connect 3 0 2 1;
#X connect 4 0 1 0;
#X connect 5 0 2 0;
#X connect 6 0 7 0;
#X connect 7 0 2 0;
#X restore 339 133 pd counter;
#X msg 419 69 8;
#X obj 416 20 loadbang;
#X obj 71 117 *~ 75;
#X obj 23 70 lop~ 0.4;
#X obj 533 386 loadbang;
#X obj 368 640 +~;
#X text 532 671 creates a delay line;
#X text 533 685 \$0-sammap is creating a name for the delay line;
#X text 532 701 1000 sets the delay line to 1000ms or 1s;
#X obj 368 831 reverbA~;
#X obj 484 718 loadbang;
#X msg 458 747 127;
#X obj 329 685 delwrite~ \$0-sammap1 2000;
#X obj 534 462 delread4~ \$0-sammap1;
#X msg 531 421 1100;
#X obj 436 571 lop~ 800;
#X obj 546 497 *~ 0.999;
#X text 624 496 feedback (0-1);
#X text 432 130 count from 0 to 7 in loop;
#X text 578 298 select one of the 8 MIDI notes;
#X text 444 337 convert the MIDI note to a frequency in Hz;
#X text 271 377 create a constant tone with the spectrum of a tubular
bell;
#X text 166 456 multiply the filtered input signal with the tubular
bell tone;
#X text 590 425 time delay (ms);
#X text 97 230 visualisation;
#X text 147 516 visualisation;
#X text 503 572 low pass filter with a cutoff frequency of 800 Hz;
#X text 100 60 low pass filter with a cutoff frequency of 0.4 Hz;
#X text 126 119 amplification;
#X text 155 9 read analog input signal from pin 0;
#X text 502 739 reverb room size (0-127);
#X text 453 832 reverb;
#X text 770 879 audio output;
#X connect 0 0 24 0;
#X connect 1 0 5 0;
#X connect 1 0 26 0;
#X connect 2 0 1 1;
#X connect 6 0 7 0;
#X connect 8 0 2 0;
#X connect 9 0 8 0;
#X connect 10 0 8 0;
#X connect 11 0 8 0;
#X connect 12 0 8 0;
#X connect 13 0 8 0;
#X connect 14 0 8 0;
#X connect 15 0 8 0;
#X connect 16 0 8 0;
#X connect 17 0 9 0;
#X connect 17 1 10 0;
#X connect 17 2 11 0;
#X connect 17 3 12 0;
#X connect 17 4 13 0;
#X connect 17 5 14 0;
#X connect 17 6 15 0;
#X connect 17 7 16 0;
#X connect 18 0 20 0;
#X connect 19 0 18 0;
#X connect 20 0 17 0;
#X connect 21 0 20 1;
#X connect 22 0 21 0;
#X connect 23 0 4 0;
#X connect 23 0 1 0;
#X connect 24 0 23 0;
#X connect 25 0 35 0;
#X connect 26 0 30 0;
#X connect 26 0 33 0;
#X connect 30 0 3 0;
#X connect 31 0 32 0;
#X connect 32 0 30 1;
#X connect 34 0 37 0;
#X connect 35 0 34 0;
#X connect 36 0 26 1;
#X connect 37 0 36 0;
